<svg width="1280" height="720" xmlns="http://www.w3.org/2000/svg" xmlns:xlink="http://www.w3.org/1999/xlink" overflow="hidden"><defs><clipPath id="clip0"><rect x="0" y="0" width="1280" height="720"/></clipPath></defs><g clip-path="url(#clip0)"><rect x="0" y="0" width="1280" height="720" fill="#FFFFFF"/><path d="M984.5 0.500053 1112.5 720.5" stroke="#BFBFBF" stroke-linecap="round" stroke-linejoin="round" stroke-miterlimit="10" fill="none" fill-rule="evenodd"/><path d="M0 0 500.111 333.5" stroke="#D9D9D9" stroke-linecap="round" stroke-linejoin="round" stroke-miterlimit="10" fill="none" fill-rule="evenodd" transform="matrix(-1 0 0 1 1280.61 387.5)"/><path d="M1178.94-1 1280-1 1280 720 964 720 1178.94-1Z" fill="#90C226" fill-rule="evenodd" fill-opacity="0.301961"/><path d="M1008-1 1280-1 1280 720 1135.09 720 1008-1Z" fill="#90C226" fill-rule="evenodd" fill-opacity="0.2"/><path d="M938 720 1280 320 1280 720Z" fill="#54A021" fill-rule="evenodd" fill-opacity="0.721569"/><path d="M980-1 1280-1 1280 720 1239.68 720 980-1Z" fill="#3F7819" fill-rule="evenodd" fill-opacity="0.701961"/><path d="M1251.5-1 1280-1 1280 720 1144 720 1251.5-1Z" fill="#C0E474" fill-rule="evenodd" fill-opacity="0.701961"/><path d="M1148-1 1280-1 1280 720 1265.17 720 1148-1Z" fill="#90C226" fill-rule="evenodd" fill-opacity="0.65098"/><path d="M1089 720 1280 377 1280 720Z" fill="#90C226" fill-rule="evenodd" fill-opacity="0.8"/><path d="M88 0 0 595 0 0Z" fill="#90C226" fill-rule="evenodd" fill-opacity="0.85098"/></g></svg>